<?xml version="1.0" standalone="no"?>
<!DOCTYPE svg PUBLIC "-//W3C//DTD SVG 1.1//EN" "http://www.w3.org/Graphics/SVG/1.1/DTD/svg11.dtd" >
<svg xmlns="http://www.w3.org/2000/svg">
<metadata>Generated by IcoMoon</metadata>
<defs>
<font id="tech-blog" horiz-adv-x="1024">
<font-face units-per-em="1024" ascent="960" descent="-64" />
<missing-glyph horiz-adv-x="1024" />
<glyph unicode="&#x20;" d="" horiz-adv-x="512" />
<glyph unicode="&#xe600;" d="M707.72 952.471l-75.249-11.55 108.228-256.211 57.419-2.394zM737.852 678.114l-54.558 171.535-57.736-17.559 9.111-28.597-187.618-57.043 4.533-14.291-187.603-57.058 4.548-14.291-101.015-30.72-56.952 29.711 43.309 13.161-13.643 42.888-129.882-39.499 13.628-42.888 57.736 17.559-9.879-18.673 33.837-21.067-24.757-7.514 27.287-85.775 187.618 57.058 4.533-14.306 187.618 57.058 4.548-14.291 187.603 57.058 9.111-28.582 57.72 17.544zM573.5 285.53l22.709 10.662-128.587 212.043-46.005-15.119-45.944 15.119-128.572-212.043 22.694-10.662-149.323-250.142 46.908-30.946 223.804 387.569 4.804-158.539 8.99-297.472 54.347 3.554-12.83 289.777 24.305-1.988-7.424 145.092 212.54-367.992 46.908 30.946zM421.647 613.647c-33.265 0-45.176-26.97-45.176-60.235s11.912-75.294 45.176-75.294 45.176 42.029 45.176 75.294-11.912 60.235-45.176 60.235z" horiz-adv-x="798" />
<glyph unicode="&#xe601;" d="M1066.473 574.045l-367.057 53.341-164.143 332.614-164.143-332.614-367.057-53.341 265.588-258.886-62.697-365.568 328.308 172.591 328.308-172.591-62.72 365.568z" horiz-adv-x="1071" />
<glyph unicode="&#xe602;" d="M0 174.933l34.133-136.533h204.8v443.733c0 0-136.533-307.2-238.933-307.2zM580.267 4.284h-204.8c-18.842 0-34.133-15.292-34.133-34.15s15.292-34.133 34.133-34.133h204.8c18.842 0 34.133 15.292 34.133 34.133s-15.292 34.15-34.133 34.15zM716.8 482.133v-443.733h204.8l34.133 136.533c-102.4 0-238.933 307.2-238.933 307.2zM477.867 960c-68.267 0-204.8-273.067-204.8-273.067v-580.267c0-37.7 30.566-68.267 68.267-68.267h273.067c37.7 0 68.267 30.566 68.267 68.267v580.267c0 0-136.533 273.067-204.8 273.067zM476.877 279.62c-36.983 0-66.97 29.986-66.97 66.987 0 36.983 29.969 66.97 66.97 66.97s66.953-29.986 66.953-66.97c0-37.001-29.969-66.987-66.953-66.987zM575.966 621.141c0-55.535-45.039-100.557-100.557-100.557-55.535 0-100.557 45.022-100.557 100.557 0 55.518 45.022 100.54 100.557 100.54 55.518-0.017 100.557-45.039 100.557-100.54z" horiz-adv-x="956" />
<glyph unicode="&#xe603;" d="M186.991 470.261h142.47c19.67 0 35.617 15.948 35.617 35.617v302.748c0 0-71.235 142.47-106.852 142.47-35.617 0-106.852-142.47-106.852-142.47v-302.748c0-19.67 15.948-35.617 35.617-35.617zM257.71 596.115c-19.296 0-34.941 15.645-34.941 34.95 0 19.296 15.636 34.941 34.941 34.941s34.932-15.645 34.932-34.941c0-19.305-15.636-34.95-34.932-34.95zM256.944 826.746c28.966 0 52.464-23.49 52.464-52.456 0-28.975-23.499-52.464-52.464-52.464-28.975 0-52.464 23.49-52.464 52.464 0 28.966 23.49 52.456 52.464 52.456zM302.534 35.257c58.288 59.561 107.066 127.288 107.066 189.191 0 49.045-33.302 119.113-105.882 137.804h-3.562c36.873-25.698 49.962-57.228 49.962-85.25 0-14.007-4.764-35.039-20.222-44.37-5.948 22.19-26.17 30.364-42.839 30.364-2.377 0-8.326-1.175-13.080-1.175 0-1.166-1.193-1.166-2.386-2.333 20.222-14.015 26.17-37.372 26.17-52.553 0-51.387-46.392-80.575-46.392-78.234 0 3.508 3.562 22.181 3.562 24.523 0 60.719-73.755 73.568-73.755 137.804 0 22.181 9.519 52.545 39.259 72.401-71.368-12.858-104.68-71.253-104.68-121.473 0-53.711 47.585-84.075 47.585-114.448 0-16.348-13.089-36.196-35.689-37.363 16.66-14.015 32.118-16.348 46.392-16.348 3.437 0 26.695 0.009 28.432 2.084-1.158-2.858-11.78-29.135-11.78-32.456v-32.697c7.15-47.861 44.023-74.725 83.291-74.725 13.080 0 34.495 5.832 46.401 14.015-28.556 2.333-38.066 19.848-38.066 38.529 0 9.35 3.562 18.69 7.132 28.022 2.369 5.85 7.132 12.858 13.080 18.69zM382.887 701.774v-231.513h106.852l17.809 71.235c-53.426 0-124.661 160.278-124.661 160.278zM133.565 701.774c0 0-71.235-160.278-124.661-160.278l17.809-71.235h106.852v231.513zM204.8 452.461c-9.83 0-17.809-7.978-17.809-17.818s7.978-17.809 17.809-17.809h106.852c9.83 0 17.809 7.978 17.809 17.809s-7.978 17.818-17.809 17.818h-106.852z" horiz-adv-x="508" />
<glyph unicode="&#xe604;" d="M810.667 100.011l-24.427 127.445-100.715-0.021-27.499 182.933 90.325-0.021-17.664 92.117-86.549 0.043-22.080 146.347h80.576l-13.355 69.696-77.781-0.043-15.552 103.253 73.579 0.021-10.603 55.296-71.317 0.064-12.48 82.859h-67.925l7.467-82.88h-218.667l7.467 82.88h-67.925l-12.501-82.88-71.317-0.064-10.581-55.275 73.579-0.021-15.573-103.253-77.781 0.043-13.355-69.696h80.704l-22.080-146.347-86.656-0.043-17.685-92.139 90.453 0.021-27.627-182.933-100.715 0.021-24.405-127.424 105.92 0.064-24.747-164.075h129.664l14.869 164.053h359.253l14.869-164.053h129.664l-24.747 164.053 105.92-0.043zM290.987 821.76h228.672l9.387-103.253h-247.445l9.387 103.253zM275.307 648.853h260.075l13.205-146.347h-286.507l13.227 146.347zM237.227 227.413l16.533 182.933h303.147l16.512-182.933h-336.192z" horiz-adv-x="811" />
<glyph unicode="&#xe605;" d="M914.773 796.16c0 0-1.939 0.737-5.516 1.843 1.843-0.628 3.645-1.215 5.516-1.843zM505.173 605.013c-133.748-201.455-80.541-513.161-41.301-669.013h150.528c0 0-63.706 152.467-81.92 300.373s2.266 398.227 191.147 491.52c81.606 40.305 128.314 63.597 155.116 77.087-70.888 11.687-233.936 10.336-373.569-199.967zM395.947 727.893c-283.58-333.619-286.72-791.893-286.72-791.893h95.3c0.601 91.505 15.497 395.441 177.766 641.707 183.105 277.914 311.228 288.591 500.053 229.076 31.662 15.961 32.427 16.684 32.427 16.684-27.307 22.76-286.72 177.493-518.827-95.573zM878.742 804.98c14.104-2.321 24.617-5.147 30.502-6.963-9.107 3.072-18.077 5.994-26.911 8.779-1.147-0.601-2.335-1.188-3.591-1.816zM0 181.76v-109.227l682.667-13.653v68.267zM54.613 468.48l-13.653-102.591 619.998-115.521 13.599 71.83zM213.224 740.318l-53.753-86.153 471.491-212.391 14.404 58.996zM475.819 927.396l-68.007-37.67 302.503-309.862 29.3 53.767zM750.892 953.173l-68.226-10.472 98.127-232.298 52.060-2.171z" horiz-adv-x="915" />
<glyph unicode="&#xe606;" d="M438.007 416.484l121.666 464.744-243.333 78.772c-16.232-86.623-316.34-504.111-316.34-732.539 0-212.689 129.783-259.944 373.115-291.461h162.209l89.24 362.344c-40.543 63.033-154.093 39.405-186.558 118.139zM1216.702 416.484l121.666 464.744-243.333 78.772c-16.232-86.623-316.378-504.111-316.378-732.539 0-212.651 129.783-259.944 373.153-291.461h162.209l89.24 362.344c-40.543 63.033-154.093 39.405-186.558 118.139z" horiz-adv-x="1403" />
<glyph unicode="&#xe607;" d="M444.253 722.188c-14.157 13.978-25.454 30.785-31.126 44.763-8.485 22.382-16.969 44.763-16.969 67.145 0 44.763 22.642 86.731 90.535 92.339-28.282 19.586-79.238 33.564-110.348 33.564-93.395 0-181.102-64.349-198.087-179.070v-78.328c0-8.403 28.298-78.328 28.298-78.328 0 5.591-59.425 5.591-67.909 5.591-33.955 0-70.737-5.591-110.364-39.172 53.768-2.796 84.894-50.355 84.894-89.527 0-72.753-113.176-145.506-113.176-274.204 0-120.296 79.238-260.177 249.011-290.962-70.737 47.559-93.379 120.296-93.379 173.462 0 153.893 175.445 184.661 175.445 330.151 0 5.608-8.485 50.371-8.485 58.758 0 5.591 110.364-64.349 110.364-187.457 0-36.36-14.141-92.339-62.253-125.903 2.844-2.796 5.673-2.796 5.673-5.591 11.297 0 25.454-2.796 31.11-2.796 39.627 0 87.723 19.57 101.88 72.737 36.799-22.382 48.095-72.737 48.095-106.317 0-67.145-31.11-142.677-118.833-204.231h8.468c172.585 44.747 251.823 212.618 251.823 330.118 0 148.285-116.021 310.565-254.667 453.258z" horiz-adv-x="699" />
<glyph unicode="&#xe608;" d="M1578.518 960l-710.344-708.92-710.344 708.92-157.83-157.518 868.174-866.482 868.174 866.482z" horiz-adv-x="1736" />
<glyph unicode="&#xe609;" d="M963.953 770.273c0 7.291-4.874 26.767-12.206 34.058-46.387 48.64-83.005 104.571-129.352 104.571-43.93 0-63.447-31.621-114.688-82.698l173.261-172.687c48.804 53.514 82.985 70.533 82.985 116.756zM0-51.835l222.065 53.514-168.387 170.25-53.678-223.764zM168.387 643.809c46.367-51.077 97.608-104.571 143.974-155.668l114.708 116.736c-68.321 99.717-139.1 201.871-209.879 296.735-29.286 41.37-78.090 58.388-109.814 58.388-36.598 0-78.090-19.456-87.859-70.533v-48.64c0-4.854 4.874-14.602 4.874-19.456 14.664-53.535 97.628-121.631 143.995-177.562zM134.226 933.233c24.392-4.854 53.699-17.019 70.779-46.203-9.769-7.291-19.538-17.039-29.286-26.747-9.769 24.31-46.387 60.805-73.216 72.95h31.724zM727.245 745.964l-568.627-564.306c-9.769 9.748-19.517 19.456-24.392 26.767l566.17 564.285c-7.311 7.27-17.101 17.019-24.412 21.873l-593.019-593.469 173.261-170.25 593.019 593.469-121.999 121.631zM995.676-46.981c-24.392 2.437-63.468 9.748-80.548 41.37-31.724 58.388-29.286 133.775-107.377 133.775-39.035 0-126.894-36.495-126.894-99.738 0-82.698 209.879-92.426 244.040-92.426 26.87 0 97.628 9.728 119.583 14.602-4.874 0-9.769 0-48.804 2.417zM741.888 162.202l-124.477 172.708-85.402-85.135 139.1-148.357c19.538 14.582 56.136 38.912 70.779 60.785z" horiz-adv-x="1044" />
<glyph unicode="&#xe60a;" d="M1030.144 960h-162.209l-89.278-362.344c40.581-63.033 154.131-39.405 186.596-118.139l-121.704-464.744 243.371-78.772c16.232 86.623 316.34 504.111 316.34 732.539 0 212.689-129.783 259.944-373.115 291.461zM251.449 960h-162.209l-89.24-362.344c40.543-63.033 154.093-39.405 186.558-118.139l-121.666-464.744 243.333-78.772c16.232 86.623 316.34 504.111 316.34 732.539 0 212.689-129.783 259.944-373.115 291.461z" horiz-adv-x="1403" />
<glyph unicode="&#xe60b;" d="M1118.815 789.333l75.852 151.704-113.778-75.852-22.149-11.055c-45.208 52.755-111.521 86.907-186.444 86.907-136.154 0-246.519-91.401-246.519-227.556 0-18.508 2.408-55.372 6.277-72.704l-6.277-3.148c0 0-493.037 75.852-530.963 265.481 0 0-113.778-189.63 75.852-341.333 0 0-75.852-37.926-113.778 0 0 0 0-113.778 189.63-227.556 0 0-75.852-37.926-113.778 0 0 0 151.704-151.704 227.556-151.704 0 0 0-113.778-341.333-113.778 0 0 431.559-284.312 834.37 37.926 204.781 163.84 254.635 371.39 257.271 527.91 4.855 19.285 8.211 39.159 8.211 59.942v18.963l113.778 113.778-113.778-37.926z" horiz-adv-x="1233" />
<glyph unicode="&#xe60c;" d="M800.582 271.127c0 0-169.221 74.473-335.127 74.473-154.084 0-335.127-74.473-335.127-74.473l-111.709-297.891c0 0 222.394-37.236 446.836-37.236 222.376 0 446.836 37.236 446.836 37.236l-111.709 297.891zM465.455 420.073c159.576 0 260.655 159.521 260.655 223.418 0 15.844 2.439 59.392 0 74.473-20.722 127.851-134.442 223.418-260.655 223.418-127.907 0-241.925-93.054-260.655-223.418-1.936-13.48 0-60.416 0-74.473 0-63.898 101.059-223.418 260.655-223.418z" horiz-adv-x="912" />
<glyph unicode="&#xe60d;" d="M744.727 944.485l-729.212-744.727 243.060-248.242 486.152 496.485 486.152-496.485 243.060 248.242z" horiz-adv-x="1489" />
<glyph unicode="&#xe60e;" d="M677.415 471.631h-402.274c-4.663 9.878-7.326 20.448-7.326 31.508v220.554c0 52.208 56.43 94.523 126.031 94.523s126.031-42.315 126.031-94.523v-63.015c0-34.8 28.215-63.015 63.015-63.015s63.015 28.215 63.015 63.015v63.015c0 121.809-112.861 220.554-252.062 220.554s-252.062-98.745-252.062-220.554v-252.062h-31.508c-52.192 0-94.523-42.331-94.523-94.523v-346.585c0-52.192 42.331-94.523 94.523-94.523h567.138c52.192 0 94.523 42.331 94.523 94.523v346.585c0 52.192-42.331 94.523-94.523 94.523zM456.862 142.045v-48.506c0-34.8-28.215-63.015-63.015-63.015s-63.015 28.215-63.015 63.015v48.506c-37.636 21.803-63.015 62.417-63.015 109.032 0 69.616 56.43 126.031 126.031 126.031 69.6 0 126.031-56.415 126.031-126.031 0-46.616-25.379-87.229-63.015-109.032z" horiz-adv-x="772" />
<glyph unicode="&#xe60f;" d="M916.211 295.298c-61.997 0-116.664-31.403-148.947-79.153l-392.929 191.722c1.814 10.204 2.928 20.642 2.928 31.385 0 17.821-2.695 34.996-7.527 51.272l411.666 153.42c32.912-37.457 81.022-61.206 134.809-61.206 99.202 0 179.649 80.447 179.649 179.649 0 99.22-80.447 179.667-179.649 179.667-99.22 0-179.649-80.447-179.649-179.667 0-6.665 0.413-13.222 1.114-19.725l-431.409-160.768c-30.181 22.977-67.764 36.774-108.652 36.774-99.202 0-179.649-80.339-179.649-179.416 0-99.112 80.447-179.434 179.649-179.434 49.547 0 94.388 20.031 126.886 52.422l412.295-201.153c2.443-97.082 81.722-175.086 179.416-175.086 99.202 0 179.649 80.447 179.649 179.649 0 99.22-80.447 179.649-179.649 179.649z" horiz-adv-x="1096" />
<glyph unicode="&#xe610;" d="M1122.577 663.791c-70.155 160.905-230.446 273.454-417.155 273.454-251.358 0-455.111-203.753-455.111-455.088 0-1.388 0.205-2.708 0.205-4.073-129.206-21.641-227.76-133.666-227.76-269.016 0-150.801 122.266-273.067 273.067-273.067h864.711v3.163c179.564 22.437 318.578 175.309 318.578 360.926 0 198.542-158.97 359.652-356.534 363.702zM750.933 72.533l-227.556 227.556h136.533v318.601h182.044v-318.601h136.533l-227.556-227.556z" horiz-adv-x="1479" />
<glyph unicode="&#xe611;" d="M1230.879 944.485l-486.152-496.485-486.152 496.485-243.060-248.242 729.212-744.727 729.212 744.727z" horiz-adv-x="1489" />
<glyph unicode="&#xe612;" d="M1033.617 959.555l-537.823-551.335-246.361 252.572-227.172-232.893 436.936-447.933 1.825 1.87 44.255-45.368 763.147 782.358z" horiz-adv-x="1269" />
<glyph unicode="&#xe613;" d="M750.933 118.044l-273.067 227.556-455.111-409.6h1456.356l-455.111 409.6-273.067-227.556zM22.756 709.712v-682.689l409.6 364.089-409.6 318.601zM1479.111 27.022v682.689l-409.6-318.601 409.6-364.089zM22.756 937.244v-136.533l728.178-591.644 728.178 591.644v136.533h-1456.356z" horiz-adv-x="1479" />
<glyph unicode="&#xe614;" d="M204.721 965.33l-189.125-73.439 152.602-493.542c5.33-22.974-3.282-38.965-26.256-47.577l-152.602-68.109 105.026-346.663c159.586 8.612 275.692 31.193 348.318 68.109s108.702 108.702 108.702 215.381c0 52.513-22.554 124.298-68.109 215.381l-278.554 530.458zM1244.711 434.872l-278.554 530.458-189.125-73.439 152.602-493.542c5.33-22.974-3.282-38.965-26.256-47.577l-152.602-68.109 105.026-346.663c159.586 8.612 275.692 31.193 348.318 68.109s108.702 108.702 108.702 215.381c0 52.513-22.554 124.298-68.109 215.381z" horiz-adv-x="1313" />
<glyph unicode="&#xe615;" d="M697.191 789.341l-174.298 170.659-522.894-512 522.894-512 174.298 170.659-348.596 341.341z" horiz-adv-x="697" />
<glyph unicode="&#xe616;" d="M174.298 960l-174.298-170.659 348.596-341.341-348.596-341.341 174.298-170.659 522.894 512z" horiz-adv-x="697" />
<glyph unicode="&#xe617;" d="M582.892 944.246h-504.123c-34.8 0-63.015-28.215-63.015-63.015v-882.215c0-34.8 28.215-63.015 63.015-63.015h504.123c34.8 0 63.015 28.215 63.015 63.015v882.215c0 34.8-28.215 63.015-63.015 63.015zM189.046 881.231h283.569c8.696 0 15.754-7.042 15.754-15.754 0-8.696-7.058-15.754-15.754-15.754h-283.569c-8.712 0-15.754 7.058-15.754 15.754 0 8.712 7.042 15.754 15.754 15.754zM330.831-32.492c-17.392 0-31.508 14.115-31.508 31.508s14.115 31.508 31.508 31.508 31.508-14.115 31.508-31.508-14.115-31.508-31.508-31.508zM582.892 62.031h-504.123v724.677h504.123v-724.677z" horiz-adv-x="646" />
<glyph unicode="&#xe618;" d="M677.415 471.631h-31.523v252.062c0 121.809-112.845 220.554-252.062 220.554-139.201 0-252.046-98.745-252.046-220.554v-252.062h-31.508c-52.208 0-94.523-42.331-94.523-94.523v-346.585c0-52.192 42.315-94.523 94.523-94.523h567.138c52.192 0 94.523 42.331 94.523 94.523v346.585c0 52.192-42.331 94.523-94.523 94.523zM456.862 142.045v-48.506c0-34.8-28.215-63.015-63.031-63.015-34.8 0-63.015 28.215-63.015 63.015v48.506c-37.636 21.803-63.015 62.417-63.015 109.032 0 69.616 56.43 126.031 126.031 126.031 69.616 0 126.031-56.415 126.031-126.031 0-46.616-25.364-87.229-63-109.032zM519.861 503.138c0-11.059-2.662-21.63-7.326-31.508h-237.41c-4.663 9.878-7.326 20.448-7.326 31.508v220.554c0 52.208 56.43 94.523 126.031 94.523 69.616 0 126.031-42.315 126.031-94.523v-220.554z" horiz-adv-x="772" />
<glyph unicode="&#xe619;" d="M1024 719.060l-240.94 240.94-271.060-271.060-271.060 271.060-240.94-240.94 271.060-271.060-271.060-271.060 240.94-240.94 271.060 271.060 271.060-271.060 240.94 240.94-271.048 271.060z" />
<glyph unicode="&#xe61a;" d="M1062.642 940.679h-154.566v-154.566l154.566-154.566v309.132zM1164.346 429.877l-491.829 491.829c-19.784 19.804-47.606 26.354-72.955 20.171-25.349 6.183-53.171-0.367-72.974-20.171l-491.829-491.829c-30.179-30.179-30.179-79.118 0-109.298l27.32-27.32c30.179-30.179 79.118-30.179 109.298 0l79.795 79.795v-437.055h231.849v347.774h231.849v-347.774h231.849v438.272l80.993-80.993c30.179-30.179 79.118-30.179 109.298 0l27.32 27.32c30.179 30.179 30.179 79.099 0.019 109.278z" horiz-adv-x="1198" />
<glyph unicode="&#xe61b;" d="M618.667 405.333l298.667-426.667 298.667 426.667h-171.179v554.176h-1023.488v-1023.509h768l-183.211 256.469h-328.427v511.168h511.168v-298.304z" horiz-adv-x="1216" />
<glyph unicode="&#xe61c;" d="M417.756 765.799h100.388l1.491 178.445h-153.941c0 0-242.922 20.157-242.922-218.561 0-51.056 0-139.821 0-139.821h-107.754l0.431-146.953h109.227l2.425-502.012h217.016v502.012h143.27l30.558 146.953h-175.751v117.293c-0.018 0-1.796 62.644 75.56 62.644z" horiz-adv-x="521" />
<glyph unicode="&#xe61d;" d="M806.766 113.566c-4.998 0-10.63-1.95-16.847-5.827-70.437-44.032-166.473-75.727-293.059-75.727-225.987 0-425.228 153.405-425.228 429.909 0 233.35 189.733 402.091 399.043 402.091 202.654 0 359.814-108.788 359.814-330.313 0-139.971-69.851-234.13-151.528-234.13-38.059 0-70.485 13.873-70.485 72.411 0 19.919 3.73 44.666 11.849 74.825l57.978 218.185c-37.4 16.457-77.312 24.966-132.803 24.966-208.262 0-300.178-156.282-300.178-293.254 0-97.694 38.571-166.619 129.95-166.619 64.853 0 121.563 25.551 169.594 90.234 10.606-59.758 53.004-89.624 117.833-89.624 139.678 0 237.861 129.804 237.861 302.982 0 256.219-199.802 400.408-429.909 400.408-254.123 0.024-469.138-210.018-469.138-472.186 0-312.101 223.232-500.005 495.323-500.005 144.043 0 255.659 34.45 343.479 93.403l-14.238 42.715c-4.364 10.362-10.606 15.555-19.31 15.555zM533.675 435.029c-28.696-106.155-84.821-134.827-136.558-134.827-54.248 0-81.676 38.424-81.676 97.012 0 112.25 88.527 223.305 212.626 223.305 19.334 0 36.791-1.829 53.004-5.51l-47.397-179.98z" horiz-adv-x="926" />
<glyph unicode="&#xe61e;" d="M480 896c-265.096 0-480-214.904-480-480 0-265.098 214.904-480 480-480 265.098 0 480 214.902 480 480 0 265.096-214.902 480-480 480zM751.59 256c8.58 40.454 13.996 83.392 15.758 128h127.446c-3.336-44.196-13.624-87.114-30.68-128h-112.524zM208.41 576c-8.58-40.454-13.996-83.392-15.758-128h-127.444c3.336 44.194 13.622 87.114 30.678 128h112.524zM686.036 576c9.614-40.962 15.398-83.854 17.28-128h-191.316v128h174.036zM512 640v187.338c14.59-4.246 29.044-11.37 43.228-21.37 26.582-18.74 52.012-47.608 73.54-83.486 14.882-24.802 27.752-52.416 38.496-82.484h-155.264zM331.232 722.484c21.528 35.878 46.956 64.748 73.54 83.486 14.182 10 28.638 17.124 43.228 21.37v-187.34h-155.264c10.746 30.066 23.616 57.68 38.496 82.484zM448 576v-128h-191.314c1.88 44.146 7.666 87.038 17.278 128h174.036zM95.888 256c-17.056 40.886-27.342 83.804-30.678 128h127.444c1.762-44.608 7.178-87.546 15.758-128h-112.524zM256.686 384h191.314v-128h-174.036c-9.612 40.96-15.398 83.854-17.278 128zM448 192v-187.34c-14.588 4.246-29.044 11.372-43.228 21.37-26.584 18.74-52.014 47.61-73.54 83.486-14.882 24.804-27.75 52.418-38.498 82.484h155.266zM628.768 109.516c-21.528-35.876-46.958-64.746-73.54-83.486-14.184-9.998-28.638-17.124-43.228-21.37v187.34h155.266c-10.746-30.066-23.616-57.68-38.498-82.484zM512 256v128h191.314c-1.88-44.146-7.666-87.040-17.28-128h-174.034zM767.348 448c-1.762 44.608-7.178 87.546-15.758 128h112.524c17.056-40.886 27.344-83.806 30.68-128h-127.446zM830.658 640h-95.9c-18.638 58.762-44.376 110.294-75.316 151.428 42.536-20.34 81.058-47.616 114.714-81.272 21.48-21.478 40.362-44.938 56.502-70.156zM185.844 710.156c33.658 33.658 72.18 60.932 114.714 81.272-30.942-41.134-56.676-92.666-75.316-151.428h-95.898c16.138 25.218 35.022 48.678 56.5 70.156zM129.344 192h95.898c18.64-58.762 44.376-110.294 75.318-151.43-42.536 20.34-81.058 47.616-114.714 81.274-21.48 21.478-40.364 44.938-56.502 70.156zM774.156 121.844c-33.656-33.658-72.18-60.934-114.714-81.274 30.942 41.134 56.678 92.668 75.316 151.43h95.9c-16.14-25.218-35.022-48.678-56.502-70.156z" />
<glyph unicode="&#xe61f;" d="M953.396 885.358l-4.028 4.042c-94.148 94.134-248.194 94.134-342.326 0l-218.106-218.136c-94.134-94.132-94.134-248.176 0-342.31l4.026-4.026c7.832-7.848 16.146-14.924 24.736-21.458l79.848 79.85c-9.302 5.494-18.126 12.072-26.116 20.060l-4.042 4.042c-51.114 51.098-51.114 134.272 0 185.39l218.128 218.112c51.116 51.118 134.274 51.118 185.386 0l4.042-4.024c51.1-51.116 51.1-134.292 0-185.39l-98.686-98.686c17.132-42.308 25.248-87.4 24.538-132.386l152.604 152.604c94.134 94.136 94.134 248.178-0.004 342.316zM631.042 571.066c-7.832 7.832-16.146 14.922-24.736 21.44l-79.848-79.832c9.304-5.496 18.126-12.074 26.116-20.062l4.042-4.040c51.116-51.116 51.116-134.272 0-185.388l-218.13-218.134c-51.118-51.102-134.276-51.102-185.388 0l-4.042 4.042c-51.098 51.12-51.098 134.276 0 185.388l98.688 98.686c-17.134 42.306-25.246 87.402-24.538 132.386l-152.602-152.598c-94.136-94.132-94.136-248.178 0-342.324l4.026-4.032c94.152-94.128 248.192-94.128 342.328 0l218.11 218.118c94.134 94.132 94.134 248.194 0 342.326l-4.026 4.024z" />
<glyph unicode="&#xe620;" d="M832 787.694c76.466 0 145.092 41.622 192 73.106v-595.69c-46.908-31.486-115.534-73.11-192-73.11s-145.092 22.67-192 54.156c-46.908 31.48-115.534 54.15-192 54.15-76.466 0-145.090-38.916-192-70.396v595.69c46.91 31.484 115.534 70.4 192 70.4s145.092-22.668 192-54.152c46.908-31.484 115.534-54.154 192-54.154zM128 960c35.346 0 64-28.654 64-64v-960h-128v960c0 35.346 28.654 64 64 64z" />
<glyph unicode="&#xe621;" d="M559.066 896c0 0-200.956 0-267.94 0-120.12 0-233.17-91.006-233.17-196.422 0-107.726 81.882-194.666 204.088-194.666 8.498 0 16.756 0.17 24.842 0.752-7.93-15.186-13.602-32.288-13.602-50.042 0-29.938 16.104-54.21 36.468-74.024-15.386 0-30.242-0.448-46.452-0.448-148.782 0.002-263.3-94.758-263.3-193.020 0-96.778 125.542-157.314 274.334-157.314 169.624 0 263.306 96.244 263.306 193.028 0 77.6-22.896 124.072-93.686 174.134-24.216 17.144-70.53 58.836-70.53 83.344 0 28.72 8.196 42.868 51.428 76.646 44.312 34.624 75.672 83.302 75.672 139.916 0 67.406-30.020 133.098-86.372 154.772h84.954l59.96 43.344zM465.48 240.542c2.126-8.972 3.284-18.206 3.284-27.628 0-78.2-50.392-139.31-194.974-139.31-102.842 0-177.116 65.104-177.116 143.3 0 76.642 92.126 140.444 194.964 139.332 24-0.254 46.368-4.116 66.67-10.69 55.826-38.826 95.876-60.762 107.172-105.004zM300.818 532.224c-69.038 2.064-134.636 77.226-146.552 167.86-11.916 90.666 34.37 160.042 103.388 157.99 69.010-2.074 134.638-74.814 146.558-165.458 11.906-90.66-34.39-162.458-103.394-160.392zM832 704v192h-64v-192h-192v-64h192v-192h64v192h192v64z" />
<glyph unicode="&#xe622;" d="M136.294 209.070c-75.196 0-136.292-61.334-136.292-136.076 0-75.154 61.1-135.802 136.292-135.802 75.466 0 136.494 60.648 136.494 135.802-0.002 74.742-61.024 136.076-136.494 136.076zM0.156 612.070v-196.258c127.784 0 247.958-49.972 338.458-140.512 90.384-90.318 140.282-211.036 140.282-339.3h197.122c-0.002 372.82-303.282 676.070-675.862 676.070zM0.388 960v-196.356c455.782 0 826.756-371.334 826.756-827.644h196.856c0 564.47-459.254 1024-1023.612 1024z" />
<glyph unicode="&#xe623;" d="M512 960c-282.77 0-512-229.23-512-512s229.23-512 512-512 512 229.23 512 512-229.23 512-512 512zM816.056 143.944c-39.518-39.516-85.512-70.532-136.708-92.186-13.006-5.5-26.214-10.328-39.6-14.492v76.734c0 40.334-13.834 70-41.5 89 17.334 1.666 33.25 4 47.75 7s29.834 7.334 46 13 30.666 12.416 43.5 20.25 25.166 18 37 30.5 21.75 26.666 29.75 42.5 14.334 34.834 19 57 7 46.584 7 73.25c0 51.666-16.834 95.666-50.5 132 15.334 40 13.666 83.5-5 130.5l-12.5 1.5c-8.666 1-24.25-2.666-46.75-11s-47.75-22-75.75-41c-39.666 11-80.834 16.5-123.5 16.5-43 0-84-5.5-123-16.5-17.666 12-34.416 21.916-50.25 29.75-15.834 7.834-28.5 13.166-38 16s-18.334 4.584-26.5 5.25-13.416 0.834-15.75 0.5-4-0.666-5-1c-18.666-47.334-20.334-90.834-5-130.5-33.666-36.334-50.5-80.334-50.5-132 0-26.666 2.334-51.084 7-73.25s11-41.166 19-57 17.916-30 29.75-42.5 24.166-22.666 37-30.5 27.334-14.584 43.5-20.25 31.5-10 46-13 30.416-5.334 47.75-7c-27.334-18.666-41-48.334-41-89v-78.23c-15.098 4.494-29.98 9.804-44.6 15.988-51.194 21.654-97.188 52.67-136.706 92.186-39.516 39.518-70.534 85.512-92.186 136.708-22.398 52.958-33.756 109.262-33.756 167.348s11.358 114.39 33.758 167.35c21.654 51.194 52.67 97.188 92.186 136.706s85.512 70.534 136.706 92.186c52.96 22.4 109.264 33.758 167.35 33.758s114.39-11.358 167.35-33.758c51.196-21.654 97.19-52.67 136.708-92.186 39.516-39.516 70.532-85.512 92.186-136.706 22.398-52.96 33.756-109.264 33.756-167.35s-11.358-114.39-33.758-167.35c-21.654-51.194-52.67-97.19-92.186-136.706z" />
<glyph unicode="&#xe624;" d="M235.278 711.28c-50.792 0-94.484-16.806-131.084-50.416-38.086-35.852-57.14-80.66-57.14-134.436 0-35.852 10.376-69.462 31.294-100.832 18.674-29.126 38.18-47.806 63.778-56.024v-2.242c-25.598-10.448-36.966-36.59-36.966-78.418 0-32.124 11.372-56.022 36.966-71.708v-2.242c-70.654-23.146-102.992-66.094-102.992-128.83 0-54.534 23.748-94.488 70.066-119.878 36.59-20.172 83.578-30.254 140.346-30.254 138.17 0 207.406 57.882 207.406 173.664 0 72.446-53.322 116.882-160.128 133.316-24.646 3.726-43.286 12.696-55.982 26.89-9.708 9.708-14.542 19.418-14.542 29.126 0 27.632 14.958 43.696 44.82 48.176 45.558 6.714 82.728 27.824 111.486 63.296 28.75 35.48 43.13 77.118 43.13 124.916 0 14.938-4.518 30.996-10.488 48.172 19.418 4.488 33.050 8.594 43.292 12.332v115.392c-45.054-17.928-86.99-26.884-122.842-26.884-31.374 17.922-63.824 26.884-100.42 26.884zM247.602 152.23c62.744 0 94.104-19.042 94.104-57.14 0-40.336-28.754-60.492-86.264-60.492-65.724 0-98.586 19.422-98.586 58.254-0.002 39.59 30.244 59.378 90.746 59.378zM239.76 448c-47.054 0-70.586 25.764-70.586 77.308 0 55.262 23.532 82.906 70.586 82.906 22.402 0 39.958-8.596 52.652-25.768 10.458-15.69 15.69-34.36 15.69-56.022 0-52.278-22.786-78.424-68.342-78.424zM580.384 960c-21.656 0-40.14-8.214-55.454-24.648-15.314-16.436-22.97-36.216-22.97-59.376 0-22.41 7.658-41.82 22.97-58.258 15.308-16.434 33.792-24.64 55.454-24.64 20.91 0 39.028 8.208 54.34 24.64 15.312 16.438 22.96 35.848 22.96 58.258 0 23.16-7.648 42.944-22.96 59.376-15.318 16.434-33.43 24.648-54.34 24.648zM643.13 704.002h-126.606c1.496-14.336-0.64-36.042-0.64-71.14v-348.432c0-35.856 2.136-64.774 0.64-76.036h126.606c-1.5 16.376-5.394 44.668-5.394 82.758v343.946c-0.006 32.864 3.894 54.568 5.394 68.904zM922.336 315.8c-32.872 0-49.082 25.028-49.082 75.066v206.64h49.864c8.96 0 17.032 0.492 27.118-0.246 10.086-0.748 14.152-0.25 19.278-0.25v106.99h-96.258v47.616c0 17.922 2.816 34.302 5.054 44.542h-129.958c2.242-10.24 2.028-25.876 2.028-46.79v-45.368h-56.32v-106.988c15.364 2.24 29.090 3.356 38.796 3.356l17.524-1.118v-202.786c0-62.742 7.958-108.672 23.636-137.8 20.922-38.84 57.622-58.258 112.136-58.258 38.848 0 73.118 7.464 98.714 22.41v112.032c-20.474-12.7-39.382-19.048-62.53-19.048z" />
<glyph unicode="&#xe625;" d="M891.96 445.796c-18.086 0-35.348-3.52-51.064-9.856-10.506 114.358-110.29 204.060-232 204.060-29.786 0-58.682-5.63-84.318-15.164-9.96-3.702-12.578-7.52-12.578-14.916v-402.714c0-7.766 6.24-14.234 14.124-14.996 0.336-0.034 363.536-0.21 365.89-0.21 72.904 0 131.986 56.816 131.986 126.894s-59.134 126.902-132.040 126.902zM400 192h32l16 224.22-16 223.78h-32l-16-223.78zM304 192h-32l-16 162.75 16 157.25h32l16-160zM144 192h32l16 128-16 128h-32l-16-128zM16 256h32l16 64-16 64h-32l-16-64z" />
<glyph unicode="&#xe626;" d="M636.518 972.8c68.608 0 102.912-46.797 102.912-100.25 0-66.765-59.597-128.563-137.114-128.563-65.024 0-102.912 38.4-101.12 101.837 0 53.504 45.056 126.976 135.322 126.976zM425.421-51.2c-54.17 0-93.85 33.382-55.962 180.378l62.157 260.659c10.803 41.728 12.595 58.47 0 58.47-16.282 0-86.528-28.826-128.102-57.242l-27.034 45.107c131.738 111.923 283.238 177.51 348.211 177.51 54.118 0 63.078-65.126 36.096-165.325l-71.219-274.022c-12.595-48.435-7.219-65.126 5.376-65.126 16.282 0 69.478 20.122 121.805 61.85l30.72-41.728c-128.051-130.355-267.93-180.531-322.048-180.531z" />
<glyph unicode="&#xe627;" d="M505.702 931.789c-260.096-3.482-468.173-217.19-464.691-477.338 3.482-259.994 217.19-468.122 477.286-464.64 260.096 3.482 468.173 217.19 464.691 477.338-3.43 260.045-217.19 468.122-477.286 464.64zM557.926 774.81c47.872 0 62.003-27.75 62.003-59.546 0-39.68-31.795-76.39-86.016-76.39-45.363 0-66.918 22.835-65.638 60.518 0 31.795 26.624 75.418 89.651 75.418zM435.149 166.4c-32.717 0-56.678 19.866-33.792 107.213l37.53 154.829c6.502 24.832 7.578 34.765 0 34.765-9.779 0-52.275-17.152-77.414-34.048l-16.333 26.778c79.616 66.458 171.162 105.472 210.381 105.472 32.717 0 38.144-38.707 21.811-98.253l-43.008-162.816c-7.578-28.774-4.301-38.707 3.277-38.707 9.779 0 41.984 11.878 73.626 36.762l18.483-24.832c-77.363-77.363-161.792-107.162-194.56-107.162z" />
<glyph unicode="&#xe628;" d="M721.408 858.419c-58.419 42.138-131.686 63.181-219.955 63.181-67.174 0-123.802-14.848-169.83-44.442-73.062-46.387-111.872-125.133-116.582-236.237h169.267c0 32.358 9.421 63.539 28.314 93.542s50.944 45.005 96.154 45.005c45.926 0 77.619-12.186 94.925-36.506 17.357-24.422 26.010-51.405 26.010-80.998 0-25.754-12.902-49.306-28.467-70.758-8.55-12.493-19.866-23.962-33.843-34.509 0 0-91.802-58.88-132.147-106.189-23.398-27.443-25.498-68.506-27.546-127.437-0.154-4.198 1.434-12.851 16.128-12.851s118.63 0 131.686 0 15.77 9.677 15.974 13.926c0.922 21.453 3.328 32.41 7.27 44.8 7.424 23.398 27.494 43.827 50.125 61.389l46.592 32.154c42.035 32.768 75.622 59.648 90.419 80.742 25.293 34.714 43.059 77.414 43.059 128.051 0 82.688-29.235 145.050-87.552 187.136zM498.739 208.691c-58.368 1.741-106.496-38.605-108.339-101.888-1.843-63.232 43.93-105.011 102.298-106.752 60.928-1.792 107.776 37.274 109.619 100.506 1.792 63.283-42.65 106.342-103.578 108.134z" />
<glyph unicode="&#xe629;" d="M999.014 52.122l-456.090 800.307c-6.298 11.059-18.125 17.869-30.925 17.869s-24.576-6.81-30.925-17.869l-456.038-800.307c-6.195-10.854-6.093-24.115 0.256-34.867s18.022-17.357 30.618-17.357h912.128c12.493 0 24.218 6.605 30.618 17.357 6.349 10.752 6.451 24.013 0.358 34.867zM568.32 102.298h-112.64v102.4h112.64v-102.4zM568.32 281.498h-112.64v307.2h112.64v-307.2z" />
</font>
</defs>
</svg>
